<svg width="836" height="208" viewBox="0 0 836 208" fill="none" xmlns="http://www.w3.org/2000/svg">
<path d="M112.097 154.91C97.9028 154.91 94.6702 148.606 94.6702 138.634V108.868C94.6702 98.4559 91.2983 94.6439 83.5677 94.6439C76.1218 94.6439 73.5913 100.362 73.5913 108.428V154.902H64.3151C53.4931 154.902 47.7321 151.237 47.7321 138.626V108.121C47.7321 98.589 44.2169 94.6275 37.1906 94.6275C29.7446 94.6275 26.7925 98.5869 26.7925 108.549V154.91H17.5183C5.57236 154.91 0.0938263 148.899 0.0938263 138.634V110.334C0.0938263 86.8724 13.0224 71.917 37.6144 71.917C49.6934 71.917 58.8345 79.6966 61.3629 86.2869C65.0194 80.1307 74.4328 71.9129 85.5331 71.9129C108.021 71.9129 121.361 85.8344 121.361 111.063V154.912H112.086L112.097 154.91Z" fill="#00AEEF"/>
<path d="M167.332 157.113C152.438 157.113 134.307 149.781 134.307 131.45C134.307 113.561 146.677 104.471 174.78 104.471H178.575V101.097C178.575 94.4986 173.662 92.8874 163.116 92.8874C148.642 92.8874 143.301 96.4046 137.822 101.691H137.12V91.8637C137.12 81.8914 147.098 71.9211 169.16 71.9211C190.521 71.9211 204.433 83.2119 204.433 106.967V119.43C204.433 148.758 195.439 157.115 167.332 157.115V157.113ZM179.136 121.775H173.797C163.679 121.775 159.605 124.413 159.605 129.843C159.605 134.973 162.699 137.608 170.145 137.608C174.923 137.608 179.136 135.119 179.136 127.781V121.775Z" fill="#00AEEF"/>
<path d="M330.075 154.91C315.881 154.91 312.648 148.606 312.648 138.634V108.869C312.648 98.4561 309.274 94.644 301.544 94.644C294.096 94.644 291.567 100.362 291.567 108.428V154.902H282.291C271.471 154.902 265.708 151.237 265.708 138.626V108.121C265.708 98.5891 262.193 94.6276 255.166 94.6276C247.721 94.6276 244.768 98.5871 244.768 108.549V154.91H235.494C223.548 154.91 218.068 148.899 218.068 138.634V110.334C218.068 86.8725 230.996 71.9171 255.588 71.9171C267.667 71.9171 276.808 79.6968 279.337 86.287C282.989 80.1308 292.405 71.9171 303.505 71.9171C325.992 71.9171 339.332 85.8387 339.332 111.067V154.912H330.06L330.075 154.91Z" fill="#00AEEF"/>
<path d="M385.309 157.113C370.417 157.113 352.287 149.781 352.287 131.45C352.287 113.561 364.652 104.471 392.759 104.471H396.555V101.097C396.555 94.4986 391.642 92.8874 381.096 92.8874C366.622 92.8874 361.282 96.4046 355.802 101.691H355.102V91.8637C355.102 81.8914 365.078 71.9211 387.14 71.9211C408.501 71.9211 422.414 83.2119 422.414 106.967V119.43C422.414 148.758 413.423 157.115 385.311 157.115L385.309 157.113ZM397.118 121.775H391.781C381.663 121.775 377.587 124.413 377.587 129.843C377.587 134.973 380.68 137.608 388.126 137.608C392.905 137.608 397.122 135.119 397.122 127.781V121.77L397.118 121.775Z" fill="#00AEEF"/>
<path d="M472.308 124.557H460.784C462.332 132.619 468.652 136.431 479.758 136.431C492.124 136.431 499.85 134.384 504.209 131.299H505.192V137.75C505.192 148.017 497.183 157.254 475.117 157.254C448.418 157.254 434.376 138.482 434.376 116.198C434.376 91.7102 450.251 71.7717 474.147 71.7717C494.378 71.7717 510.119 83.6459 510.119 104.176C510.119 120.309 498.45 124.559 472.316 124.559L472.308 124.557ZM474.145 92.5946C464.727 92.5946 460.792 98.8982 460.092 106.672H470.486C483.138 106.672 485.388 104.624 485.388 101.099C485.388 96.9922 481.873 92.5946 474.147 92.5946" fill="#82C341"/>
<path d="M553.821 157.113C538.921 157.113 520.792 149.781 520.792 131.45C520.792 113.561 533.159 104.471 561.263 104.471H565.06V101.097C565.06 94.4986 560.147 92.8874 549.605 92.8874C535.125 92.8874 529.786 96.4046 524.303 101.691H523.605V91.8637C523.605 81.8914 533.581 71.9211 555.645 71.9211C577.006 71.9211 590.919 83.2119 590.919 106.967V119.43C590.919 148.758 581.924 157.115 553.823 157.115L553.821 157.113ZM565.627 121.775H560.286C550.166 121.775 546.092 124.413 546.092 129.843C546.092 134.973 549.181 137.608 556.632 137.608C561.41 137.608 565.627 135.119 565.627 127.781V121.775Z" fill="#82C341"/>
<path d="M652.059 95.0861C649.066 93.9019 645.859 93.3525 642.642 93.4728C636.174 93.4728 631.116 96.8447 631.116 106.67V154.914H623.811C612.287 154.914 605.256 149.339 605.256 135.85V100.804C605.256 84.5303 615.798 71.6242 633.368 71.6242C646.718 71.6242 652.899 77.3423 652.899 84.8231V95.0861H652.059Z" fill="#82C341"/>
<path d="M670.187 60.0407C674.079 56.7145 678.982 54.8024 684.098 54.6154H686.909V74.2693H709.544V84.0963C709.544 90.9875 702.514 96.2654 696.474 96.2654H686.917V125.437C686.802 126.583 686.939 127.739 687.319 128.826C687.698 129.913 688.311 130.904 689.115 131.728C689.918 132.553 690.892 133.191 691.969 133.599C693.045 134.007 694.198 134.174 695.346 134.089C699.451 134.366 703.569 133.767 707.425 132.332H708.127V143.183C708.127 149.927 702.225 156.081 688.312 156.081C675.1 156.081 660.911 149.482 660.911 127.337V77.3423C661.026 73.9399 661.923 70.6097 663.532 67.6095C665.141 64.6093 667.419 62.0196 670.189 60.0407" fill="#82C341"/>
<path d="M787.251 154.92C773.197 154.92 770.81 148.029 770.81 138.057V111.067C770.81 99.6312 766.875 94.4986 759.29 94.4986C748.887 94.4986 746.359 100.217 746.359 111.653V154.92H737.365C724.578 154.92 719.656 149.345 719.656 138.057V46.4018H728.226C739.335 46.4018 745.655 51.9766 745.655 62.3849V83.2079C749.59 76.7569 756.053 71.9171 768.279 71.9171C783.88 71.9171 797.513 84.5284 797.513 106.375V154.92H787.251Z" fill="#82C341"/>
<path d="M796.597 64.7473C796.597 61.4327 797.58 58.1925 799.422 55.4365C801.263 52.6804 803.881 50.5324 806.943 49.2639C810.005 47.9955 813.375 47.6636 816.626 48.3102C819.877 48.9569 822.863 50.553 825.207 52.8968C827.551 55.2406 829.147 58.2268 829.794 61.4778C830.44 64.7287 830.108 68.0984 828.84 71.1607C827.571 74.223 825.423 76.8404 822.667 78.682C819.911 80.5235 816.671 81.5064 813.357 81.5064C811.156 81.5069 808.976 81.0738 806.942 80.2318C804.909 79.3897 803.061 78.1553 801.505 76.5989C799.948 75.0426 798.714 73.1949 797.872 71.1614C797.03 69.1278 796.597 66.9483 796.597 64.7473V64.7473ZM799.822 64.7473C799.822 67.4242 800.616 70.041 802.103 72.2667C803.59 74.4925 805.704 76.2272 808.177 77.2516C810.65 78.276 813.372 78.5441 815.997 78.0218C818.622 77.4996 821.034 76.2105 822.927 74.3177C824.82 72.4249 826.109 70.0132 826.631 67.3878C827.153 64.7623 826.885 62.041 825.861 59.5678C824.836 57.0947 823.102 54.9809 820.876 53.4937C818.65 52.0065 816.033 51.2127 813.357 51.2127C809.768 51.216 806.327 52.643 803.79 55.1805C801.252 57.718 799.825 61.1587 799.822 64.7473ZM813.823 68.6371C813.197 67.2982 812.82 67.1733 811.483 67.0484V72.8136H809.52C809.139 72.8583 808.753 72.821 808.387 72.7043C808.022 72.5876 807.685 72.3942 807.4 72.137C807.116 71.8797 806.889 71.5647 806.736 71.2128C806.583 70.861 806.507 70.4805 806.512 70.0969V57.4037C808.172 56.9348 809.886 56.6816 811.61 56.6503H813.453C817.001 56.6503 819.633 58.6136 819.633 61.5822C819.635 62.4508 819.393 63.3024 818.935 64.0406C818.478 64.7787 817.822 65.3739 817.044 65.7587C817.757 66.5433 818.349 67.4309 818.798 68.3915C819.967 70.6066 820.303 71.1082 821.181 71.6077C820.801 72.0205 820.334 72.3435 819.813 72.5531C819.293 72.7628 818.732 72.8538 818.172 72.8197C815.332 72.8197 814.79 70.6476 813.827 68.6433L813.823 68.6371ZM811.927 60.1286C811.695 60.1247 811.463 60.1398 811.233 60.1737V63.4145C811.743 63.4596 812.298 63.4596 812.947 63.4596C813.177 63.4789 813.409 63.4501 813.628 63.375C813.846 63.2999 814.047 63.1803 814.217 63.0235C814.386 62.8668 814.522 62.6765 814.614 62.4647C814.706 62.2529 814.753 62.0241 814.753 61.7931C814.753 60.7285 814.198 60.1266 812.947 60.1266L811.927 60.1286Z" fill="#82C341"/>
<rect y="18" width="830" height="25" fill="url(#paint0_linear_3094_2262)"/>
<rect y="179" width="830" height="25" fill="url(#paint1_linear_3094_2262)"/>
<defs>
<linearGradient id="paint0_linear_3094_2262" x1="-3.7759e-06" y1="29.9999" x2="830" y2="29.9997" gradientUnits="userSpaceOnUse">
<stop stop-color="#FF9933"/>
<stop offset="1" stop-color="#FF9933" stop-opacity="0"/>
</linearGradient>
<linearGradient id="paint1_linear_3094_2262" x1="-3.7759e-06" y1="191" x2="830" y2="191" gradientUnits="userSpaceOnUse">
<stop stop-color="#138808"/>
<stop offset="1" stop-color="#138808" stop-opacity="0"/>
</linearGradient>
</defs>
</svg>
